<?xml version="1.0"?>
<svg xmlns="http://www.w3.org/2000/svg" xmlns:xlink="http://www.w3.org/1999/xlink" xmlns:svgjs="http://svgjs.com/svgjs" version="1.1" width="512" height="512" x="0" y="0" viewBox="0 0 512 512" style="enable-background:new 0 0 512 512" xml:space="preserve" class=""><g transform="matrix(-1,-2.4492935982947064e-16,-2.4492935982947064e-16,1,511.99997711181663,5.684341886080802e-14)"><g xmlns="http://www.w3.org/2000/svg"><g><path d="m352.974 292.582-26.407-75.004c-7.258-20.614-26.766-34.409-48.661-34.409v129.031z" fill="#e0efff" data-original="#e0efff" style=""/><path d="m446.939 468.925h-376.939c-27.204 0-49.257-22.053-49.257-49.257v-77.828c0-27.204 22.053-49.257 49.257-49.257h309.95c64.201 0 116.247 52.045 116.247 116.247v10.839c-.001 27.203-22.054 49.256-49.258 49.256z" fill="#ff91c1" data-original="#ff91c1" style="" class=""/><path d="m379.949 292.582h-41.207c64.201 0 116.247 52.045 116.247 116.247v10.839c0 27.204-22.053 49.257-49.257 49.257h41.207c27.204 0 49.257-22.053 49.257-49.257v-10.839c0-64.202-52.045-116.247-116.247-116.247z" fill="#ff7db6" data-original="#ff7db6" style=""/><path d="m121.492 291.596v-49.285c0-10.343 8.402-18.728 18.767-18.728 10.365 0 18.767 8.385 18.767 18.728v49.285z" fill="#54768a" data-original="#54768a" style="" class=""/><path d="m285.36 217.578 26.216 74.461 41.399.544-26.407-75.004c-7.258-20.614-26.766-34.409-48.661-34.409v20.517c3.128 4.147 5.664 8.81 7.453 13.891z" fill="#d4e8ff" data-original="#d4e8ff" style="" class=""/><g><path d="m77.348 325.877v-33.295h-7.219c-27.276 0-49.387 22.066-49.387 49.285v15.726h24.823c17.554 0 31.783-14.2 31.783-31.716z" fill="#ff5492" data-original="#ff5492" style="" class=""/></g><path d="m123.467 468.925h-102.779c-11.426 0-20.688-9.263-20.688-20.688v-.024c0-11.426 9.262-20.688 20.688-20.688h102.779z" fill="#e0efff" data-original="#e0efff" style=""/><path d="m388.533 468.925h102.779c11.426 0 20.688-9.262 20.688-20.688v-.024c0-11.426-9.262-20.688-20.688-20.688h-102.779z" fill="#e0efff" data-original="#e0efff" style=""/><g><path d="m419.694 361.581c0 13.649 11.088 24.714 24.765 24.714h49.531c-3.632-18.405-11.609-35.251-22.829-49.429h-26.702c-13.678.001-24.765 11.066-24.765 24.715z" fill="#ffdb0d" data-original="#ffdb0d" style=""/></g><g><ellipse cx="116.651" cy="464.102" fill="#54768a" rx="47.997" ry="47.898" data-original="#54768a" style="" class=""/><path d="m116.651 416.204c-7.375 0-14.36 1.665-20.604 4.631 16.196 7.695 27.393 24.174 27.393 43.267s-11.197 35.573-27.393 43.267c6.244 2.966 13.228 4.631 20.604 4.631 26.508 0 47.997-21.445 47.997-47.898 0-26.454-21.489-47.898-47.997-47.898z" fill="#416a82" data-original="#416a82" style="" class=""/><ellipse cx="116.651" cy="464.102" fill="#ffffff" rx="18.365" ry="18.327" data-original="#ffffff" style="" class=""/><ellipse cx="382.508" cy="464.102" fill="#54768a" rx="47.997" ry="47.898" data-original="#54768a" style="" class=""/><path d="m382.508 416.204c-7.376 0-14.36 1.665-20.604 4.631 16.196 7.695 27.393 24.174 27.393 43.267s-11.197 35.573-27.393 43.267c6.244 2.966 13.228 4.631 20.604 4.631 26.508 0 47.997-21.445 47.997-47.898 0-26.454-21.489-47.898-47.997-47.898z" fill="#416a82" data-original="#416a82" style="" class=""/><path d="m382.508 482.429c-10.126 0-18.365-8.222-18.365-18.327s8.239-18.327 18.365-18.327c10.127 0 18.366 8.222 18.366 18.327s-8.239 18.327-18.366 18.327z" fill="#ffffff" data-original="#ffffff" style="" class=""/></g><g><path d="m276.513 315.05c-4.268 0-7.726 3.459-7.726 7.726v116.703c0 4.267 3.459 7.726 7.726 7.726 4.268 0 7.726-3.459 7.726-7.726v-116.703c0-4.267-3.458-7.726-7.726-7.726z" fill="#ff5492" data-original="#ff5492" style="" class=""/><path d="m246.882 328.356h-20.741c-4.267 0-7.726 3.459-7.726 7.726s3.459 7.726 7.726 7.726h20.741c4.267 0 7.726-3.459 7.726-7.726.001-4.267-3.459-7.726-7.726-7.726z" fill="#54768a" data-original="#54768a" style="" class=""/><path d="m121.492 315.05c-4.267 0-7.726 3.459-7.726 7.726v70.059c0 4.267 3.459 7.726 7.726 7.726s7.726-3.459 7.726-7.726v-70.059c0-4.267-3.459-7.726-7.726-7.726z" fill="#ff5492" data-original="#ff5492" style="" class=""/></g></g><g><path d="m158.67 61.615c-10.437 0-19.411 6.945-23.374 16.896-3.963-9.951-12.937-16.896-23.374-16.896-14.107 0-25.542 12.686-25.542 28.334 0 35.818 48.916 55.599 48.916 55.599s48.434-20.048 48.916-55.599c.213-15.646-11.435-28.334-25.542-28.334z" fill="#ff91c1" data-original="#ff91c1" style="" class=""/><g fill="#ff5492"><path d="m260.734 0c-7.879 0-14.654 5.243-17.645 12.755-2.993-7.512-9.767-12.755-17.646-12.755-10.649 0-19.283 9.577-19.283 21.39 0 27.04 36.928 41.973 36.928 41.973s36.564-15.134 36.928-41.973c.16-11.812-8.633-21.39-19.282-21.39z" fill="#ff5492" data-original="#ff5492" style="" class=""/><path d="m226.314 156.985c-6.514 0-12.114 4.334-14.588 10.545-2.473-6.21-8.074-10.545-14.588-10.545-8.804 0-15.941 7.917-15.941 17.683 0 22.354 30.529 34.699 30.529 34.699s30.228-12.512 30.529-34.699c.133-9.764-7.137-17.683-15.941-17.683z" fill="#ff5492" data-original="#ff5492" style="" class=""/></g></g></g></g></svg>
