<svg id="Capa_1" enable-background="new 0 0 456.085 456.085" height="512" viewBox="0 0 456.085 456.085" width="512" xmlns="http://www.w3.org/2000/svg"><g><g fill="#3a556a"><path d="m169.348 262.964-2-1.705c7.635-9.08 8.97-23.745 3.405-37.361-5.829-12.049-13.726-22.983-23.33-32.306l-.23-.25c-8.26-9.03-18.54-20.265-23.58-33.686-5.255-14.323-4.546-30.156 1.97-43.951l2.39 1.15c-6.208 13.142-6.883 28.226-1.875 41.871 4.5 12 12.74 21.56 23.05 32.826l.23.25c9.827 9.543 17.892 20.745 23.825 33.091 5.91 14.515 4.41 30.246-3.855 40.071z"/><path d="m175.068 270.314-2.5-.93c4.175-11.1.55-25.371-9.235-36.361-9.511-9.429-20.602-17.116-32.771-22.71-11.08-5.915-24.5-13.085-33.736-24.05-9.727-11.753-14.333-26.918-12.785-42.096l2.63.29c-1.47 14.459 2.919 28.904 12.185 40.101 9.32 9.757 20.408 17.653 32.676 23.27 12.553 5.761 23.99 13.693 33.786 23.43 10.44 11.711 14.265 27.056 9.75 39.056z"/><path d="m200.769 255.894c-4.67-10.91-17.16-18.71-31.821-19.87-13.394-.223-26.723 1.906-39.381 6.29-12.08 3.395-26.706 7.53-41.001 5.965-15.156-1.759-28.973-9.524-38.356-21.555l2.1-1.615c8.94 11.464 22.105 18.861 36.546 20.535 12.735 1.37 25-1.675 39.691-5.795 13.05-4.52 26.793-6.708 40.601-6.465 15.63 1.24 29.001 9.665 34.051 21.465z"/></g><path d="m41.255 340.595 15.64 15.58 79.082 6.775s20.32-5.475 20.5-6.815-9-51.351-11.405-53.151-58.621-7.805-60.001-7.805-31.411 9.405-31.411 9.405z" fill="#2f4859"/><path d="m322.131 351.391 33.516 11.56h77.391l18.231-20.831-18.426-35.935-52.496-6.98-31.425 11.76z" fill="#2f4859"/><circle cx="394.162" cy="352.801" fill="#3a556a" r="34.966"/><path d="m406.923 329.885c-7.916-4.512-17.625-4.512-25.541 0-12.686 7.053-17.252 23.054-10.199 35.74s23.054 17.252 35.74 10.199 17.252-23.054 10.199-35.74c-2.382-4.284-5.915-7.817-10.199-10.199zm-23.916 2.31c6.953-3.765 15.337-3.765 22.29 0 1.387.768 1.889 2.514 1.121 3.901-.126.228-.283.438-.466.624l-8.585 8.595c-1.024-.409-2.113-.631-3.215-.655-1.098.005-2.182.238-3.185.685l-8.615-8.615c-1.117-1.121-1.113-2.935.009-4.052.191-.19.409-.353.646-.483zm-5 32.466c-1.111 1.115-2.916 1.118-4.031.007-.196-.195-.363-.418-.495-.662-3.733-6.94-3.733-15.29 0-22.23.725-1.382 2.432-1.914 3.814-1.19.253.133.484.303.686.505l8.615 8.615c-.426.998-.648 2.07-.655 3.155.007 1.104.229 2.196.655 3.215zm12.455-15.455c2.035-2.034 5.334-2.033 7.368.002s2.033 5.334-.002 7.368c-2.034 2.033-5.332 2.033-7.366 0-2.024-2.041-2.021-5.332.005-7.37zm14.801 24.35c-6.945 3.715-15.286 3.715-22.23 0-1.384-.749-1.899-2.479-1.15-3.863.132-.243.298-.466.495-.662l8.585-8.585c1.01.416 2.093.628 3.185.625 1.094.021 2.18-.192 3.185-.625l8.615 8.615c1.103 1.104 1.102 2.893-.002 3.995-.2.2-.428.368-.678.5zm5.055-8.865-8.615-8.615c.454-1.01.678-2.108.655-3.215-.014-1.091-.226-2.17-.625-3.185l8.585-8.585c1.129-1.112 2.946-1.099 4.059.031.183.186.34.396.466.624 3.765 6.953 3.765 15.337 0 22.29-.765 1.385-2.508 1.888-3.893 1.123-.229-.127-.441-.284-.627-.468z" fill="#e1e6e9"/><circle cx="95.502" cy="352.801" fill="#3a556a" r="34.966"/><path d="m108.262 329.885c-7.916-4.512-17.625-4.512-25.54 0-12.686 7.053-17.252 23.054-10.199 35.74s23.054 17.252 35.739 10.199 17.252-23.054 10.199-35.74c-2.382-4.284-5.915-7.817-10.199-10.199zm-23.916 2.31c6.953-3.765 15.337-3.765 22.29 0 1.386.763 1.891 2.505 1.128 3.892-.128.232-.287.445-.473.634l-8.585 8.595c-1.024-.409-2.113-.631-3.215-.655-1.098.005-2.182.238-3.185.685l-8.615-8.615c-1.116-1.126-1.108-2.943.018-4.059.189-.188.404-.348.637-.477zm-5 32.466c-1.111 1.115-2.916 1.118-4.031.007-.196-.195-.363-.418-.495-.662-3.726-6.942-3.726-15.289 0-22.23.725-1.382 2.432-1.914 3.814-1.19.253.133.484.303.686.505l8.615 8.615c-.426.998-.648 2.07-.655 3.155.007 1.104.229 2.196.655 3.215zm12.47-15.455c2.035-2.034 5.334-2.033 7.368.002s2.033 5.334-.002 7.368c-2.034 2.033-5.332 2.033-7.366 0-2.025-2.04-2.025-5.331 0-7.37zm14.801 24.35c-6.945 3.715-15.286 3.715-22.23 0-1.384-.749-1.899-2.479-1.15-3.863.132-.243.298-.466.495-.662l8.585-8.585c1.01.416 2.093.628 3.185.625 1.094.021 2.18-.192 3.185-.625l8.63 8.615c1.098 1.105 1.092 2.89-.013 3.988-.205.204-.44.375-.697.507zm5.055-8.865-8.615-8.615c.454-1.01.678-2.108.655-3.215-.014-1.091-.226-2.17-.625-3.185l8.585-8.585c1.132-1.113 2.952-1.098 4.066.034.182.185.338.394.464.621 3.76 6.955 3.76 15.336 0 22.29-.762 1.39-2.507 1.898-3.897 1.136-.236-.129-.453-.291-.643-.481z" fill="#e1e6e9"/><path d="m434.273 300.095c-31.346-8.34-102.067-19.78-102.067-19.78s-44.926-35.451-93.887-43.256c-34.391-5.5-72.316-5.5-99.192.205-9.47 1.275-18.831 3.266-28.001 5.955-16.45 6.185-45.036 17.18-67.071 26.956l-28.316.745c-7.396.195-13.29 6.247-13.29 13.645v54.251c0 7.132 5.375 13.117 12.465 13.88l42.001 3.5s-4.2-48.441 40.531-45.596 38.551 52.371 38.551 52.371h219.649s-3.88-31.966 20.535-46.061c13.309-7.678 29.907-6.717 42.241 2.445 9.65 7.28 18.365 20.375 14.615 43.616l22.5-6.03.54-27.851c.288-13.537-8.719-25.514-21.804-28.995z" fill="#fe7058"/><path d="m194.318 241.263v35.576l-106.572-5.025s23.035-28.436 88.867-30.501c3.705-.11 10.475-.11 17.705-.05z" fill="#3a556a"/><path d="m322.126 282.864-121.142-5.695v-35.811c7.22.11 14.085.28 18 .45 37.995 1.81 74.297 16.26 103.142 41.056z" fill="#3a556a"/><path d="m2.44 288.614h15.085v31.916h-15.085z" fill="#ebf0f3"/><path d="m2.44 305.445h15.085v15.085h-15.085z" fill="#ea6453"/><path d="m455.809 342.635h-23.386l.615 20.316 22.491-6.03z" fill="#2f4859"/><path d="m2.44 320.53v24.43c.003 4.38 3.555 7.93 7.935 7.93h7.155v-32.36z" fill="#2f4859"/><path d="m135.122 69.35c-8.367-2.937-17.633.575-21.95 8.32-6.479-6.053-16.375-6.562-23.44-1.205-13.88 10.865-3.715 46.141 31.426 52.141 31.62-16.46 30.505-53.161 13.964-59.256z" fill="#fe7058"/><path d="m119.532 126.256-3.6 10.385 13.19-2.065-7.15-9.415z" fill="#fe7058"/><path d="m124.547 128.476-6.5 1c-.428 0-.775-.347-.775-.775 0-.339.221-.639.545-.74l6.475-1c.421-.078.826.199.904.62.079.421-.199.825-.62.904-.013.002-.026.005-.039.006z" fill="#3a556a"/><path d="m94.066 79.945s-16 11.14 6.95 35.531c.001 0-19.235-21.34-6.95-35.531z" fill="#ebf0f3"/><path d="m80.151 112.951c-8.842.685-15.904 7.64-16.725 16.47-8.372-2.924-17.634.605-21.935 8.36-8.32 15.54 15.225 43.716 49.796 35.001 22.285-27.805 6.455-60.931-11.136-59.831z" fill="#fe7058"/><path d="m88.851 171.307.9 10.955 11.236-7.215-10.346-5.725z" fill="#fe7058"/><path d="m94.316 171.312-5.5 3.545c-.378.207-.852.068-1.059-.31-.186-.341-.093-.767.219-1l5.5-3.54c.36-.232.841-.128 1.073.233s.128.84-.233 1.072z" fill="#3a556a"/><path d="m46.861 139.211s-10.13 16.65 20.7 29.701c0 0-26.211-11.76-20.7-29.701z" fill="#ebf0f3"/><path d="m31.625 174.912c-8.092 2.391-13.289 10.259-12.31 18.64-8.375-1.073-16.306 4.039-18.785 12.11-4.715 16.115 22.785 37.716 53.286 22.805 15.255-30.309-6-58.05-22.191-53.555z" fill="#fe7058"/><path d="m51.236 227.553 2.995 10.03 9.045-8.94-10.765-3.29z" fill="#fe7058"/><path d="m56.346 226.483-4.44 4.39c-.291.287-.76.284-1.048-.008-.287-.291-.284-.76.007-1.048l4.44-4.385c.275-.303.743-.326 1.045-.051.303.275.326.743.051 1.045-.017.021-.035.04-.055.057z" fill="#3a556a"/><path d="m5.815 205.938s-6.155 17.5 25.135 23.585c-.02 0-26.755-5.79-25.135-23.585z" fill="#ebf0f3"/></g></svg>